<svg width="535" height="997" viewBox="0 0 535 997" fill="none" xmlns="http://www.w3.org/2000/svg">
<g clip-path="url(#clip0)" filter="url(#filter0_d)">
<rect width="375" height="837" transform="translate(80 40)" fill="#010A43"/>
<path d="M364.945 383.751C417.326 385.838 495.067 350.762 495.067 350.762C495.067 350.762 533.811 292.031 547.15 249.672C565.41 191.687 582.399 150.118 558.106 94.3913C531.988 34.48 486.092 14.1754 423.721 -5.3526C384.189 -17.7301 318.109 -15.2512 318.109 -15.2512L-53.9874 284.796C-53.9874 284.796 13.3868 371.727 75.3752 378.313C133.848 384.524 156.292 322.818 215.091 322.173C278.357 321.48 301.725 381.231 364.945 383.751Z" fill="#060E40"/>
<path d="M364.945 383.751C417.326 385.838 495.067 350.762 495.067 350.762C495.067 350.762 533.811 292.031 547.15 249.672C565.41 191.687 582.399 150.118 558.106 94.3913C531.988 34.48 486.092 14.1754 423.721 -5.3526C384.189 -17.7301 318.109 -15.2512 318.109 -15.2512L-53.9874 284.796C-53.9874 284.796 13.3868 371.727 75.3752 378.313C133.848 384.524 156.292 322.818 215.091 322.173C278.357 321.48 301.725 381.231 364.945 383.751Z" fill="#030E4A" fill-opacity="0.8"/>
</g>
<defs>
<filter id="filter0_d" x="0" y="0" width="535" height="997" filterUnits="userSpaceOnUse" color-interpolation-filters="sRGB">
<feFlood flood-opacity="0" result="BackgroundImageFix"/>
<feColorMatrix in="SourceAlpha" type="matrix" values="0 0 0 0 0 0 0 0 0 0 0 0 0 0 0 0 0 0 127 0" result="hardAlpha"/>
<feOffset dy="40"/>
<feGaussianBlur stdDeviation="40"/>
<feColorMatrix type="matrix" values="0 0 0 0 0.00392157 0 0 0 0 0.0392157 0 0 0 0 0.262745 0 0 0 0.2 0"/>
<feBlend mode="normal" in2="BackgroundImageFix" result="effect1_dropShadow"/>
<feBlend mode="normal" in="SourceGraphic" in2="effect1_dropShadow" result="shape"/>
</filter>
<clipPath id="clip0">
<rect width="375" height="837" fill="white" transform="translate(80 40)"/>
</clipPath>
</defs>
</svg>
